<?xml version="1.0" standalone="no"?>
<!DOCTYPE svg PUBLIC "-//W3C//DTD SVG 20010904//EN"
 "http://www.w3.org/TR/2001/REC-SVG-20010904/DTD/svg10.dtd">
<svg version="1.0" xmlns="http://www.w3.org/2000/svg"
 width="119.000000pt" height="70.000000pt" viewBox="0 0 1146.000000 679.000000"
 preserveAspectRatio="xMidYMid meet">
<metadata>
Created by potrace 1.16, written by Peter Selinger 2001-2019
</metadata>
<g transform="translate(0.000000,679.000000) scale(0.100000,-0.100000)"
fill="#000000" stroke="none">
<path d="M6620 5681 l0 -70 -59 -27 c-33 -14 -68 -35 -77 -45 -23 -26 -35 -24
-97 11 -30 17 -56 30 -59 30 -9 0 -108 -178 -108 -192 0 -7 26 -27 58 -44 35
-19 55 -37 53 -45 -2 -8 -4 -50 -3 -95 l0 -81 -59 -32 -60 -33 43 -76 c23 -42
47 -87 53 -99 13 -29 17 -29 84 8 l56 31 53 -35 c29 -20 68 -41 87 -48 l35
-13 0 -73 0 -73 115 0 115 0 0 73 0 73 35 13 c19 6 57 28 84 46 l50 35 51 -30
c28 -17 57 -30 63 -30 12 0 117 168 117 187 0 5 -26 24 -57 42 l-58 32 0 94 0
95 58 31 c31 16 57 35 57 41 0 8 -93 183 -105 196 -1 2 -30 -13 -64 -33 l-61
-36 -37 30 c-21 17 -59 40 -85 51 l-48 21 0 69 0 70 -115 0 -115 0 0 -69z
m150 -76 c0 -50 3 -65 15 -65 38 0 131 -46 173 -86 l45 -44 55 30 c31 17 56
29 57 27 0 -1 9 -14 18 -29 l17 -28 -55 -31 c-54 -30 -56 -33 -48 -63 10 -40
10 -150 0 -198 -8 -36 -7 -37 43 -64 54 -29 58 -38 35 -72 l-16 -22 -55 31
-54 31 -44 -40 c-50 -46 -84 -65 -143 -81 l-43 -12 0 -64 0 -65 -40 0 -40 0 0
64 0 64 -37 13 c-62 19 -109 46 -149 85 l-39 37 -57 -30 -56 -29 -16 33 -16
33 56 27 c51 25 54 30 47 53 -9 27 -10 179 -3 219 4 21 -3 29 -47 54 -52 30
-52 30 -37 59 8 15 17 28 21 28 3 0 30 -13 58 -29 l52 -30 34 36 c37 38 91 69
153 87 l41 12 3 62 3 62 34 0 35 0 0 -65z"/>
<path d="M6667 5416 c-68 -25 -111 -71 -133 -144 -52 -172 136 -324 297 -239
160 85 138 331 -34 382 -61 18 -81 18 -130 1z m141 -94 c32 -21 52 -64 52
-112 0 -92 -113 -151 -193 -101 -31 19 -43 37 -60 93 -9 26 11 82 37 107 44
42 112 47 164 13z"/>
<path d="M5366 5659 c-76 -12 -190 -73 -228 -121 -18 -23 -54 -62 -80 -87 -70
-68 -92 -125 -91 -241 0 -52 8 -125 16 -161 9 -37 14 -83 10 -103 -9 -57 15
-123 64 -173 24 -25 43 -51 43 -59 0 -28 58 -140 98 -191 40 -50 50 -82 36
-117 -4 -10 -82 -41 -221 -86 -234 -76 -276 -96 -340 -162 -84 -87 -105 -158
-144 -486 -27 -225 -23 -252 44 -306 l39 -31 369 -3 369 -3 0 -22 c1 -23 147
-187 167 -187 5 0 44 38 86 85 56 62 74 89 70 104 -5 20 0 20 370 23 363 3
376 4 404 24 15 11 39 36 52 55 22 32 23 40 17 129 -3 52 -8 111 -12 131 -9
55 14 57 96 9 38 -22 71 -40 74 -40 6 0 146 236 146 247 0 4 -32 26 -71 48
l-71 39 6 43 c3 24 9 63 12 87 l6 44 83 22 83 22 -36 139 c-27 103 -40 139
-52 139 -8 0 -48 -9 -87 -19 -40 -11 -73 -15 -73 -11 0 5 -22 36 -49 70 l-49
61 39 67 c21 37 39 72 39 79 0 12 -218 143 -238 143 -6 0 -30 -32 -53 -70 -40
-69 -43 -71 -73 -64 -17 4 -55 10 -85 13 l-55 6 -20 80 c-11 44 -23 82 -27 85
-7 6 -20 64 -21 95 -1 53 17 136 43 190 35 75 51 187 39 274 -5 35 -10 65 -12
67 -3 2 -33 -1 -68 -7 -83 -13 -104 -8 -235 57 -158 77 -281 98 -429 73z m103
-79 c-72 -6 -111 -14 -157 -35 -73 -33 -152 -110 -152 -150 0 -36 31 -32 51 8
41 83 158 132 299 125 82 -4 94 -7 218 -67 98 -47 142 -63 179 -64 43 -2 48 0
47 20 0 18 6 22 38 25 l38 4 0 -62 c0 -126 -46 -209 -139 -252 -100 -46 -295
-31 -445 35 -69 30 -184 101 -205 126 -22 27 -28 20 -41 -48 l-12 -64 -43 29
c-24 17 -46 30 -49 30 -3 0 -6 -47 -6 -105 0 -58 -4 -105 -9 -105 -15 0 -35
108 -34 190 0 91 28 156 74 173 16 6 32 20 35 30 10 31 75 97 116 118 61 31
138 48 218 47 l75 -1 -96 -7z m-57 -486 c138 -58 324 -87 421 -65 l37 9 0 -94
c0 -52 4 -94 8 -94 5 0 24 21 42 48 34 46 35 46 38 20 5 -44 -23 -88 -57 -88
-27 0 -29 -4 -36 -47 -19 -129 -108 -253 -228 -319 -43 -24 -64 -29 -122 -29
-58 0 -79 5 -122 29 -123 68 -203 184 -228 329 -5 30 -10 37 -29 37 -33 0 -57
32 -63 82 l-5 43 21 -25 c12 -14 29 -37 38 -52 10 -16 21 -28 25 -28 4 0 8 56
8 125 0 69 2 125 6 125 3 0 22 -11 42 -25 20 -14 40 -25 44 -25 5 0 8 17 8 38
0 20 3 47 6 59 l6 23 30 -21 c16 -12 66 -37 110 -55z m609 -381 l12 -53 71 0
c40 0 100 -8 138 -19 62 -18 68 -18 73 -3 3 9 20 40 38 69 l32 52 57 -33 57
-32 -40 -68 -40 -68 50 -53 c27 -28 63 -77 81 -108 18 -31 35 -57 39 -57 3 0
38 9 76 19 38 11 70 19 71 18 1 -1 6 -23 12 -48 7 -26 14 -53 18 -62 3 -9 -1
-17 -13 -21 -10 -2 -43 -12 -74 -21 l-56 -16 -6 -82 c-4 -45 -13 -104 -22
-131 -8 -27 -15 -52 -15 -55 0 -3 29 -22 65 -41 36 -19 65 -38 65 -42 0 -11
-61 -108 -67 -108 -3 0 -32 16 -64 36 -40 24 -65 33 -79 29 -18 -6 -20 -2 -20
33 0 21 -9 72 -19 113 -15 61 -17 85 -9 129 27 149 -56 306 -200 377 -50 25
-68 28 -152 28 -81 0 -103 -4 -150 -26 -30 -14 -70 -40 -88 -57 -40 -38 -58
-33 -67 18 -6 35 -2 44 35 91 48 61 94 148 105 198 l7 35 15 -28 c21 -39 38
-27 36 25 -3 55 12 36 28 -38z m185 -312 c88 -40 156 -129 170 -223 l6 -43
-27 29 c-52 53 -120 87 -280 137 -148 48 -158 52 -140 66 71 55 192 70 271 34z
m-811 -25 c79 -34 159 -34 238 -2 31 13 57 22 57 20 0 -9 -85 -45 -130 -55
-40 -9 -50 -15 -50 -31 0 -19 4 -20 50 -15 27 3 70 15 95 26 l46 20 -78 -84
c-105 -116 -110 -115 -225 13 -58 64 -88 105 -88 120 0 16 4 22 13 19 6 -3 39
-17 72 -31z m-102 -113 c24 -27 61 -67 81 -90 l37 -41 -46 -37 c-25 -21 -47
-36 -49 -34 -12 12 -95 233 -90 240 10 16 23 9 67 -38z m512 38 c5 -9 -51
-166 -79 -219 l-12 -23 -47 36 -48 37 82 89 c81 89 93 98 104 80z m-599 -190
c34 -85 65 -161 70 -168 7 -10 22 -3 67 33 32 25 61 44 63 41 5 -5 -15 -287
-21 -302 -6 -13 5 212 11 248 3 15 1 27 -4 27 -15 0 -112 -83 -112 -96 0 -18
30 -26 47 -12 13 10 14 -4 7 -108 -12 -180 -12 -179 11 -179 16 0 21 9 27 45
7 52 0 -111 -8 -182 l-6 -48 -349 0 c-379 0 -402 3 -415 54 -3 12 1 74 9 137
10 77 15 99 16 67 1 -40 4 -48 20 -48 22 0 23 4 46 190 24 200 57 256 181 316
42 20 73 41 71 47 -6 19 -61 12 -112 -14 -103 -51 -157 -137 -177 -279 -6 -46
-13 -79 -16 -72 -8 24 20 159 44 212 28 61 62 101 113 132 37 24 317 118 340
115 9 -1 39 -63 77 -156z m846 113 c160 -51 210 -76 258 -131 50 -56 68 -108
89 -254 51 -353 51 -398 -5 -419 -15 -6 -171 -10 -374 -10 l-349 0 -5 33 c-5
31 -30 325 -43 501 l-6 89 67 -53 c37 -29 68 -51 70 -49 2 3 98 243 127 317 5
12 13 22 19 22 5 0 74 -21 152 -46z m-522 -146 c0 -7 6 -83 14 -168 8 -85 22
-253 32 -372 l17 -217 -38 -47 -39 -47 -42 48 c-33 37 -42 54 -39 74 5 27 14
131 40 466 20 253 23 275 41 275 8 0 14 -6 14 -12z"/>
<path d="M6276 4603 c-17 -17 -1 -41 42 -63 65 -34 154 -127 186 -194 26 -54
51 -71 62 -42 9 22 -40 108 -97 170 -71 78 -175 147 -193 129z"/>
<path d="M6275 4070 c-3 -6 3 -25 13 -43 27 -43 50 -127 57 -212 9 -93 13
-105 36 -105 24 0 25 29 4 160 -22 137 -82 246 -110 200z"/>
<path d="M4360 2615 l0 -646 93 3 92 3 2 145 1 145 69 62 c37 34 71 63 74 63
3 0 73 -94 155 -209 l149 -210 103 0 c56 -1 102 2 102 5 0 3 -86 125 -191 271
l-191 265 191 192 c105 105 191 195 191 199 0 4 -48 7 -108 7 l-107 0 -125
-126 c-69 -69 -168 -165 -220 -213 l-95 -89 0 387 0 386 -92 3 -93 3 0 -646z"/>
<path d="M9200 3140 l0 -120 90 0 90 0 0 120 0 120 -90 0 -90 0 0 -120z"/>
<path d="M1024 3207 c3 -13 103 -253 221 -533 119 -280 234 -553 257 -606 l40
-98 77 0 76 0 110 260 c60 143 112 260 115 260 3 0 54 -117 115 -260 l109
-260 77 0 77 0 30 73 c17 39 134 317 261 616 127 299 231 550 231 558 0 11
-19 13 -97 11 l-97 -3 -198 -485 c-110 -267 -202 -488 -206 -492 -4 -4 -49 90
-100 210 l-92 218 110 267 c60 147 110 270 110 272 0 3 -42 5 -92 5 l-93 0
-59 -148 c-32 -81 -65 -163 -73 -182 l-14 -35 -72 180 -72 180 -94 3 c-75 2
-92 0 -88 -11 3 -7 53 -130 111 -273 l106 -259 -93 -223 -94 -223 -38 93
c-141 344 -205 499 -283 688 l-88 215 -98 3 -98 3 6 -24z"/>
<path d="M8680 3055 l0 -144 -62 -3 -63 -3 0 -75 0 -75 63 -3 62 -3 0 -320 c0
-246 3 -327 14 -352 17 -41 74 -91 122 -107 50 -17 166 -8 234 19 90 35 87 29
60 115 -13 42 -27 76 -32 76 -5 0 -25 -8 -46 -19 -69 -34 -141 -34 -164 2 -4
7 -8 141 -8 300 l0 287 100 0 100 0 0 80 0 80 -100 0 -100 0 0 145 0 145 -90
0 -90 0 0 -145z"/>
<path d="M3044 2901 c-199 -73 -324 -253 -324 -466 0 -314 283 -546 575 -470
215 57 355 241 355 470 0 195 -107 367 -277 448 -61 28 -79 32 -173 34 -84 3
-115 -1 -156 -16z m254 -177 c181 -90 225 -356 83 -507 -65 -70 -110 -91 -196
-91 -110 0 -191 53 -251 164 -15 28 -19 56 -19 145 0 95 3 116 23 152 56 106
143 163 247 163 46 0 74 -7 113 -26z"/>
<path d="M5493 2910 c-108 -25 -233 -127 -291 -236 -80 -154 -80 -326 1 -478
147 -277 518 -328 737 -100 70 73 105 141 127 251 47 232 -92 477 -314 552
-65 22 -193 27 -260 11z m200 -172 c56 -17 139 -96 168 -160 20 -43 24 -69 24
-143 -1 -79 -4 -97 -30 -148 -108 -217 -385 -217 -492 1 -24 50 -28 69 -28
147 0 77 4 98 27 145 27 55 42 76 90 118 53 48 157 65 241 40z"/>
<path d="M6555 2906 c-59 -19 -101 -43 -146 -83 l-39 -35 0 61 0 61 -85 0 -85
0 0 -470 0 -470 90 0 90 0 0 283 c0 276 1 283 24 333 26 56 80 115 127 140 49
25 128 28 169 7 77 -40 90 -110 90 -490 l0 -273 90 0 90 0 0 283 0 283 25 51
c34 68 110 138 166 153 90 25 158 -3 192 -78 21 -45 22 -64 25 -369 l3 -323
90 0 90 0 -3 353 c-3 332 -5 355 -25 410 -30 79 -74 131 -138 163 -50 24 -63
26 -148 22 -114 -5 -181 -34 -258 -111 -29 -29 -54 -47 -56 -40 -8 22 -63 86
-95 110 -18 13 -48 28 -68 33 -48 14 -167 11 -215 -4z"/>
<path d="M7915 2892 c-90 -30 -195 -89 -195 -109 0 -8 14 -41 30 -74 l31 -60
32 21 c80 54 174 91 243 96 62 5 74 3 124 -23 63 -33 94 -84 104 -170 l7 -52
-33 10 c-60 17 -200 27 -268 18 -95 -12 -171 -43 -229 -95 -64 -58 -92 -115
-92 -192 -1 -126 53 -215 165 -272 64 -33 75 -35 160 -35 109 1 203 29 272 81
37 29 44 31 44 15 0 -54 79 -98 156 -86 l44 6 0 85 c0 76 -2 84 -19 84 -18 0
-19 12 -23 258 l-3 257 -29 63 c-40 88 -115 155 -203 182 -97 30 -215 27 -318
-8z m306 -498 l69 -16 0 -53 c0 -67 -10 -93 -51 -135 -45 -45 -111 -71 -194
-77 -60 -4 -77 -1 -115 19 -71 37 -101 114 -71 185 33 80 196 115 362 77z"/>
<path d="M9852 2911 c-70 -18 -163 -75 -216 -131 -252 -273 -125 -722 231
-815 146 -38 310 3 418 106 48 46 95 117 95 146 0 5 -33 20 -74 32 -41 11 -81
23 -88 26 -9 4 -18 -7 -27 -30 -16 -45 -77 -90 -148 -111 -188 -55 -368 119
-350 335 14 166 111 269 263 279 65 4 80 2 129 -22 36 -18 65 -42 87 -72 17
-24 36 -44 41 -44 26 0 150 46 154 57 8 21 -43 98 -102 151 -78 71 -143 95
-275 98 -58 2 -120 -1 -138 -5z"/>
<path d="M3770 2440 l0 -470 95 0 95 0 0 293 0 293 29 46 c47 74 133 124 232
135 l59 6 0 85 0 85 -77 -5 c-86 -5 -138 -26 -210 -85 l-43 -34 0 60 0 61 -90
0 -90 0 0 -470z"/>
<path d="M9200 2440 l0 -470 90 0 90 0 0 470 0 470 -90 0 -90 0 0 -470z"/>
<path d="M5880 1415 l0 -175 30 0 30 0 0 175 0 175 -30 0 -30 0 0 -175z"/>
<path d="M6200 1530 l0 -61 -30 16 c-127 66 -249 -108 -146 -211 30 -30 40
-34 88 -34 30 0 60 6 67 13 11 10 14 10 18 0 3 -7 16 -13 29 -13 l24 0 0 175
0 175 -25 0 c-24 0 -25 -3 -25 -60z m-33 -95 c30 -21 39 -74 19 -113 -39 -76
-146 -44 -146 44 0 70 71 108 127 69z"/>
<path d="M8290 1415 l0 -175 25 0 c22 0 25 4 25 38 0 34 22 72 42 72 3 0 25
-25 48 -55 34 -44 48 -55 71 -55 16 0 29 3 28 8 0 4 -24 36 -54 72 l-54 65 50
50 c27 28 49 54 49 58 0 4 -12 7 -27 7 -20 0 -44 -17 -90 -62 l-63 -62 0 107
0 107 -25 0 -25 0 0 -175z"/>
<path d="M2963 1488 c-23 -51 -58 -128 -77 -170 l-35 -78 28 0 c23 0 31 7 46
40 l18 40 84 0 84 0 17 -40 c14 -33 22 -40 45 -40 15 0 27 1 27 3 0 2 -33 77
-74 168 -63 140 -78 164 -98 167 -21 3 -28 -7 -65 -90z"/>
<path d="M3360 1409 l0 -171 120 4 c107 3 122 5 141 25 30 29 31 95 2 124 -20
20 -20 23 -5 49 13 22 14 36 7 65 -15 57 -56 75 -172 75 l-93 0 0 -171z m202
104 c23 -21 23 -38 -2 -63 -16 -16 -33 -20 -85 -20 l-65 0 0 50 0 50 67 0 c48
0 72 -5 85 -17z m16 -145 c19 -16 15 -66 -7 -78 -11 -5 -51 -10 -90 -10 l-71
0 0 53 0 52 77 -3 c43 -2 84 -8 91 -14z"/>
<path d="M4900 1568 c0 -7 24 -83 52 -170 51 -152 54 -158 79 -158 26 0 29 6
70 127 l42 127 45 -127 c42 -119 46 -127 71 -127 25 0 29 7 79 158 28 87 52
163 52 170 0 7 -10 12 -23 12 -20 0 -27 -14 -66 -132 l-44 -133 -44 133 c-39
116 -47 132 -67 132 -19 0 -28 -16 -68 -132 l-45 -132 -44 132 c-39 118 -46
132 -66 132 -13 0 -23 -5 -23 -12z"/>
<path d="M6450 1410 l0 -170 25 0 c24 0 25 2 25 65 l0 65 85 0 c84 0 85 0 85
25 0 25 -1 25 -85 25 l-85 0 0 55 0 55 95 0 c95 0 95 0 95 25 l0 25 -120 0
-120 0 0 -170z"/>
<path d="M7300 1568 c0 -7 24 -83 52 -170 50 -151 54 -158 79 -158 25 0 29 7
70 126 l43 126 44 -126 c42 -118 46 -126 71 -126 25 0 29 7 79 158 28 87 52
163 52 170 0 7 -10 12 -23 12 -20 0 -27 -14 -66 -132 l-44 -133 -44 133 c-39
116 -47 132 -67 132 -19 0 -28 -16 -68 -132 l-45 -132 -44 132 c-39 118 -46
132 -66 132 -13 0 -23 -5 -23 -12z"/>
<path d="M3980 1525 c0 -18 -5 -25 -20 -25 -15 0 -20 -7 -20 -25 0 -18 5 -25
20 -25 18 0 20 -7 20 -79 0 -65 4 -83 21 -105 18 -23 27 -27 68 -24 38 3 46 6
46 23 0 16 -6 19 -32 17 -42 -4 -53 18 -53 102 l0 66 40 0 c36 0 40 3 40 25 0
23 -4 25 -40 25 -36 0 -40 3 -40 25 0 20 -5 25 -25 25 -20 0 -25 -5 -25 -25z"/>
<path d="M4170 1525 c0 -20 -5 -25 -25 -25 -20 0 -25 -5 -25 -25 0 -20 5 -25
25 -25 25 0 25 -1 25 -88 0 -107 12 -125 81 -120 37 2 45 7 47 25 3 20 -1 22
-35 20 l-38 -2 -3 83 -3 82 36 0 c31 0 35 3 35 25 0 22 -4 25 -35 25 -31 0
-35 3 -35 25 0 20 -5 25 -25 25 -20 0 -25 -5 -25 -25z"/>
<path d="M3743 1484 c-83 -41 -94 -158 -22 -219 53 -44 189 -29 189 21 0 22
-26 28 -52 10 -31 -22 -70 -20 -102 5 -50 40 -36 49 75 49 l102 0 -6 36 c-8
50 -32 83 -72 100 -44 18 -72 17 -112 -2z"/>
<path d="M4382 1483 c-78 -38 -90 -159 -21 -217 25 -21 41 -26 88 -26 59 0
101 19 101 46 0 22 -26 28 -52 10 -31 -22 -70 -20 -102 5 -50 39 -36 49 74 49
l100 0 0 28 c0 40 -36 91 -75 108 -44 18 -72 17 -113 -3z"/>
<path d="M4620 1370 l0 -130 25 0 c25 0 25 1 25 85 0 94 16 125 65 125 20 0
25 5 25 25 0 28 -13 31 -57 14 -19 -7 -29 -7 -31 0 -2 6 -15 11 -28 11 l-24 0
0 -130z"/>
<path d="M5463 1485 c-90 -39 -97 -179 -13 -229 36 -21 118 -21 148 0 53 37
70 138 31 188 -42 53 -103 69 -166 41z m114 -57 c32 -30 32 -90 -2 -123 -51
-52 -135 -15 -135 60 0 73 85 112 137 63z"/>
<path d="M5700 1370 l0 -130 24 0 c23 0 24 3 27 84 4 92 22 126 66 126 18 0
23 5 23 25 0 29 -20 33 -62 11 -24 -13 -28 -13 -28 0 0 8 -10 14 -25 14 l-25
0 0 -130z"/>
<path d="M6770 1478 c-77 -52 -88 -142 -25 -205 30 -30 39 -33 89 -33 50 0 61
4 92 33 43 39 54 93 31 149 -30 71 -123 99 -187 56z m117 -43 c30 -21 39 -74
19 -113 -25 -47 -75 -57 -120 -21 -34 27 -37 98 -6 129 24 24 77 26 107 5z"/>
<path d="M7020 1370 l0 -130 25 0 c25 0 25 1 25 85 0 94 16 125 65 125 20 0
25 5 25 25 0 28 -13 31 -57 14 -19 -7 -29 -7 -31 0 -2 6 -15 11 -28 11 l-24 0
0 -130z"/>
<path d="M7865 1486 c-46 -20 -67 -51 -73 -104 -8 -88 41 -142 128 -142 82 0
130 49 130 133 0 93 -97 152 -185 113z m114 -62 c29 -37 27 -89 -4 -119 -74
-75 -180 35 -114 119 16 20 29 26 59 26 30 0 43 -6 59 -26z"/>
<path d="M8100 1370 l0 -130 24 0 c23 0 24 3 28 85 5 93 22 125 65 125 18 0
23 5 23 25 0 29 -17 32 -60 10 -27 -14 -30 -14 -30 0 0 9 -9 15 -25 15 l-25 0
0 -130z"/>
</g>
</svg>
